# xmcd
#
# Track frame offsets:
#	150
#	14880
#	34476
#	57422
#	74849
#	87309
#	106791
#	122163
#	136877
#	165729
#
# Disc length: 2420 seconds
# Revision: 0
# Processed by: cddbd v1.5.2PL0 Copyright (c) Steve Scherf et al.
# Submitted via: dBpowerAMP V12.0
#
DISCID=9509720a
DTITLE=Various Artist - The Greats Sittin' In: Chicago Blues Now!
DYEAR=2002
DGENRE=Blues
TTITLE0=Little Smokey Smothers, James Wheeler, Johnny Iguana, Al Brown, Tim Austin - Old Blue Ribbon
TTITLE1=John Primer, Roosevelt Purifoy, Johnny B. Gayden, Tim Austin - Every Time You Leave Me
TTITLE2=Willie Kent, James Wheeler, Johnny Iguana, Al Brown, Tim Austin - That's All Right
TTITLE3=Mike Avery, Michael Coleman, Roosevelt Purifoy, Johnny B. Gayden, Ray Allison - The Thrill is Gone
TTITLE4=Magic Slim, Larry Skoller, Johnny Iguana, Al Brown, Tim Austin - Rough Dried Woman
TTITLE5=Willie Kent, James Wheeler, Johnny Iguana, Tim Austin - A Man and his Blues
TTITLE6=Mike Avery, Michael Coleman, Roosevelt Purifoy, Johnny B. Gayden, Ray Allison - If you Love Me Like You Say
TTITLE7=Willie Kent, James Wheeler, Johnny Iguana, Tim Austin - Sweet Home Chicago
TTITLE8=Mike Avery, Michael Coleman, Roosevelt Purifoy, Johnny B. Gayden, Ray Allison - It's My Own Fault
TTITLE9=Willie Kent, James Wheeler, Johnny Iguana, Al Brown, Tim Austin - Got My Mojo Working
EXTD=
EXTT0=
EXTT1=
EXTT2=
EXTT3=
EXTT4=
EXTT5=
EXTT6=
EXTT7=
EXTT8=
EXTT9=
PLAYORDER=
